<svg data-v-0dd9719b="" version="1.0" xmlns="http://www.w3.org/2000/svg" xmlns:xlink="http://www.w3.org/1999/xlink" width="100%" height="100%" viewBox="0 0 340.000000 250.000000" preserveAspectRatio="xMidYMid meet" color-interpolation-filters="sRGB" style="margin: auto;"> <rect data-v-0dd9719b="" x="0" y="0" width="100%" height="100%" fill="#ffffff" fill-opacity="1" class="background"></rect> <rect data-v-0dd9719b="" x="0" y="0" width="100%" height="100%" fill="url(#watermark)" fill-opacity="1" class="watermarklayer"></rect> <g data-v-0dd9719b="" fill="#f64d45" class="icon-text-wrapper icon-svg-group iconsvg" transform="translate(57.87999725341797,95.08853531883062)"><g class="iconsvg-imagesvg" transform="translate(0,0)"><g><rect fill="#f64d45" fill-opacity="0" stroke-width="2" x="0" y="0" width="60" height="59.82292414453218" class="image-rect"></rect> <svg filter="url(#colors478781648)" x="0" y="0" width="60" height="59.82292414453218" filtersec="colorsf2561333237" class="image-svg-svg primary" style="overflow: visible;"><svg xmlns="http://www.w3.org/2000/svg" viewBox="0 0.06599999964237213 44.736000061035156 44.604000091552734"><path d="M11.72 10.901c2.892.867 6.169 1.392 9.648 1.477V.066c-4.102.563-7.64 4.776-9.648 10.835zM21.368 44.67V32.359c-3.481.085-6.76.609-9.653 1.479 2.007 6.06 5.55 10.269 9.653 10.832zM11.154 31.961c3.081-.945 6.543-1.513 10.214-1.601v-6.197H9.997c.122 2.773.526 5.401 1.157 7.798zM9.957 22.162h11.411v-7.786c-3.667-.087-7.126-.655-10.204-1.598-.752 2.853-1.191 6.026-1.207 9.384zM15.244 1.164A22.43 22.43 0 0 0 5.26 7.987c1.334.874 2.881 1.646 4.6 2.289 1.282-3.792 3.143-6.951 5.384-9.112zM9.29 12.141c-1.938-.729-3.689-1.614-5.204-2.626A22.237 22.237 0 0 0 0 22.162h7.957c.017-3.577.497-6.967 1.333-10.021zM5.265 36.746c2.615 3.105 6.049 5.502 9.979 6.826-2.241-2.161-4.104-5.318-5.387-9.11-1.715.642-3.259 1.412-4.592 2.284zM36.664 22.162h8.072A22.23 22.23 0 0 0 40.65 9.516c-1.542 1.03-3.329 1.929-5.309 2.665.831 3.043 1.305 6.42 1.323 9.981zM7.996 24.162H.073a22.238 22.238 0 0 0 4.013 11.061c1.514-1.013 3.266-1.897 5.203-2.627a38.342 38.342 0 0 1-1.293-8.434zM35.342 32.557c1.98.736 3.77 1.636 5.312 2.666a22.22 22.22 0 0 0 4.012-11.061h-8.041a38.525 38.525 0 0 1-1.283 8.395zM34.623 24.162H23.368v6.197c3.628.086 7.052.643 10.104 1.568.628-2.388 1.03-5.005 1.151-7.765zM23.368 32.359v12.296c4.06-.627 7.56-4.828 9.547-10.849-2.868-.849-6.108-1.363-9.547-1.447zM29.314 43.633a22.41 22.41 0 0 0 10.156-6.886c-1.357-.89-2.938-1.673-4.694-2.321-1.294 3.844-3.186 7.037-5.462 9.207zM39.475 7.988a22.418 22.418 0 0 0-10.16-6.884c2.275 2.169 4.164 5.366 5.459 9.209 1.759-.65 3.341-1.434 4.701-2.325zM23.368.081v12.297c3.438-.083 6.676-.598 9.542-1.447C30.924 4.913 27.428.708 23.368.081zM33.465 12.811c-3.051.923-6.472 1.479-10.097 1.565v7.786h11.296c-.018-3.345-.451-6.507-1.199-9.351z" fill="#000000"></path></svg></svg> <defs><filter id="colors478781648"><feColorMatrix type="matrix" values="0 0 0 0 0.98046875  0 0 0 0 0.57421875  0 0 0 0 0.0078125  0 0 0 1 0" class="icon-fecolormatrix"></feColorMatrix></filter> <filter id="colorsf2561333237"><feColorMatrix type="matrix" values="0 0 0 0 0.99609375  0 0 0 0 0.99609375  0 0 0 0 0.99609375  0 0 0 1 0" class="icon-fecolormatrix"></feColorMatrix></filter> <filter id="colorsb6689123990"><feColorMatrix type="matrix" values="0 0 0 0 0  0 0 0 0 0  0 0 0 0 0  0 0 0 1 0" class="icon-fecolormatrix"></feColorMatrix></filter></defs></g></g> <g transform="translate(67,3.365215301513672)"><g data-gra="path-name" fill-rule="" class="tp-name iconsvg-namesvg" transform="translate(0,0)"><g transform="scale(1)"><g><path d="M1.33-10.71Q4.43-14.81 7.17-19.67 9.9-24.52 11.19-28.86L11.19-28.86 1.71-28.86 1.71-31.86 30.81-31.86 30.81-28.86 14.9-28.86Q13.67-24.33 10.86-19.38L10.86-19.38 26.19-19.38Q27.9-19.38 28.74-18.6 29.57-17.81 29.57-16.71L29.57-16.71 29.57 3.95 7.14 3.95 7.14-13.52Q6-11.86 5.1-10.71L5.1-10.71 1.33-10.71ZM26-15.38Q26-15.9 25.74-16.17 25.48-16.43 25.1-16.43L25.1-16.43 10.71-16.43 10.71 1 26 1 26-15.38ZM37-31.05L45.48-31.05 44.81-33.33 48.38-33.33 49.1-31.05 58.43-31.05Q60.05-31.05 60.88-30.26 61.71-29.48 61.76-28.33L61.76-28.33 61.76-24.67 58.43-24.67 58.43-26.43Q58.48-27.14 58.12-27.62 57.76-28.1 56.9-28.1L56.9-28.1 37-28.1 37-24.67 33.67-24.67 33.67-31.05 34.76-31.05 37-31.05ZM55.05-10.9Q57.9-5.24 62.33 0.29L62.33 0.29 58.1 0.29Q54.95-3.9 52.48-9.14L52.48-9.14 52.48 0.57Q52.48 2.62 51.43 3.62 50.38 4.62 48.9 4.67L48.9 4.67 43.81 4.67 43.19 1.71 47.71 1.71Q48.19 1.76 48.55 1.48 48.9 1.19 48.9 0.57L48.9 0.57 48.9-5.9Q46.05-3.19 41.9-0.88 37.76 1.43 33.71 2.95L33.71 2.95 33.71-0.38Q37.95-2.24 42.14-4.95 46.33-7.67 48.9-10.67L48.9-10.67 48.9-11.24Q48.9-12.48 48.24-13.57L48.24-13.57Q45.67-10.62 41.64-8.1 37.62-5.57 33.57-3.95L33.57-3.95 33.57-7.29Q36.76-8.71 40.14-10.98 43.52-13.24 46-15.86L46-15.86Q44.95-16.67 43.76-17.24L43.76-17.24Q41.33-15.05 38.57-13.38 35.81-11.71 33.48-10.76L33.48-10.76 33.48-14.1Q35.76-15.14 38.33-16.9 40.9-18.67 43.05-20.86L43.05-20.86 34.71-20.86 34.71-23.86 60.71-23.86 60.71-20.86 47.14-20.86 46.14-19.67Q48.71-18.48 50.6-16.71 52.48-14.95 52.48-12.52L52.48-12.52 52.48-11.43 53.14-11.43Q54.52-13.48 55.48-15.38 56.43-17.29 56.86-18.67L56.86-18.67 60.24-18.67Q59.81-16.95 58.86-14.88 57.9-12.81 56.57-10.9L56.57-10.9 55.05-10.9ZM71.48 0.62L81.14 0.62 81.14-14.05 73-14.05 73-17.05 81.14-17.05 81.14-26.43 84.67-26.43 84.67-17.05 92.76-17.05 92.76-14.05 84.67-14.05 84.67 0.62 94.29 0.62 94.29 3.57 71.48 3.57 71.48 0.62ZM82.14-33.33L82.9-30.62 94.52-30.62 94.52-27.67 70.67-27.67 70.67-8.71Q70.67-5.67 70.05-2.05 69.43 1.57 68.52 4.67L68.52 4.67 65 4.67Q65.86 1.43 66.48-2.26 67.1-5.95 67.1-8.95L67.1-8.95 67.1-30.62 67.33-30.62 68.05-30.62 70.48-30.62 70.67-30.62 79.33-30.62 78.57-33.33 82.14-33.33ZM111.67 4.71Q112.57 1.62 113.19-3.02 113.81-7.67 113.81-13L113.81-13 113.81-32.14 114-32.14 117.19-32.14 117.38-32.14 117.38-32.14 120.9-32.14 120.9-32.14Q122.33-32.1 123.31-31.38 124.29-30.67 124.29-29.14L124.29-29.14 124.29-0.14Q124.29 0.81 124.83 1.26 125.38 1.71 126.14 1.76L126.14 1.76 127.1 1.76 126.48 4.76 124.33 4.76Q122.81 4.71 121.76 3.79 120.71 2.86 120.71 0.95L120.71 0.95 120.71-27.48Q120.71-28.38 120.24-28.76 119.76-29.14 119.1-29.14L119.1-29.14 117.38-29.14 117.38-12.67Q117.38-7.81 116.74-3.21 116.1 1.38 115.14 4.71L115.14 4.71 111.67 4.71ZM108.33-15.81Q108.33-16.19 108.05-16.38 107.76-16.57 107.38-16.57L107.38-16.57 97.19-16.57 97.19-19.57 109-19.57Q110.19-19.57 111.02-19.02 111.86-18.48 111.86-17.24L111.86-17.24 111.86-7.19 110.1-7.19 108.33-7.19 101.33-7.19 101.33 1Q108.14-0.62 112.24-2.48L112.24-2.48 112.24 0.52Q109.57 1.76 105.76 2.93 101.95 4.1 97.81 4.71L97.81 4.71 97.81 3.57 97.81 3.57 97.81-7.19 97.81-10.14 101.33-10.14 108.33-10.14 108.33-15.81ZM100.33-21.38Q99.05-21.38 98.12-22.31 97.19-23.24 97.19-24.52L97.19-24.52 97.19-31.95 100.71-31.95 100.71-25.71Q100.71-25.14 101.12-24.76 101.52-24.38 102.05-24.38L102.05-24.38 102.95-24.38 102.95-33.38 106.48-33.38 106.48-24.38 108.67-24.38 108.67-31.95 112.24-31.95 112.24-21.38 111.19-21.38 108.67-21.38 100.33-21.38ZM140 1.71Q140.71 1.67 141.21 1.26 141.71 0.86 141.71 0.05L141.71 0.05 141.71-2.14 133.38-2.14 133.38 4.71 129.86 4.71 129.86-18.19 133.38-18.19 133.38-18.19 141.71-18.19Q143.19-18.19 144.24-17.45 145.29-16.71 145.29-15.14L145.29-15.14 145.29 0.52Q145.29 2.57 143.98 3.57 142.67 4.57 140.76 4.67L140.76 4.67 138.14 4.67 137.52 1.71 140 1.71ZM140.43-15.19L133.38-15.19 133.38-11.67 141.71-11.67 141.71-13.52Q141.71-14.29 141.33-14.69 140.95-15.1 140.43-15.19L140.43-15.19ZM141.71-5.14L141.71-8.67 133.38-8.67 133.38-5.14 141.71-5.14ZM152.1-18.67L158.57-18.67 157.95-15.67 150.95-15.67Q149.1-15.76 147.81-16.9 146.52-18.05 146.52-20.33L146.52-20.33 146.52-33.38 149.9-33.38 149.9-28Q154.43-28.9 158.24-30.67L158.24-30.67 158.24-27.52Q154.76-25.95 149.9-25L149.9-25 149.9-21.24Q149.9-19.95 150.55-19.33 151.19-18.71 152.1-18.67L152.1-18.67 152.1-18.67ZM150.95 4.67Q149.1 4.57 147.81 3.43 146.52 2.29 146.52 0L146.52 0 146.52-12.57 149.9-12.57 149.9-8.1Q154.43-9 158.24-10.76L158.24-10.76 158.24-7.57Q154.76-6 149.9-5.1L149.9-5.1 149.9-0.9Q149.9 0.38 150.55 1 151.19 1.62 152.1 1.71L152.1 1.71 158.57 1.71 157.95 4.67 157.95 4.67 150.95 4.67ZM140.81-23.95L138.86-28.86 142.43-28.86 146.1-19.57 142.52-19.57 141.9-21.1Q139.05-20.38 135.29-20.38L135.29-20.38 129.76-20.38 129.76-23.33 135.29-23.33Q138.14-23.33 140.81-23.95L140.81-23.95ZM134.38-33.38L138-33.38Q135.71-27.29 133.33-23.33L133.33-23.33 129.76-23.33Q131.05-25.52 132.31-28.21 133.57-30.9 134.38-33.38L134.38-33.38Z" transform="translate(-1.3300000429153442, 33.380001068115234)"></path></g> <!----> <!----> <!----> <!----> <!----> <!----> <!----></g></g> <g data-gra="path-slogan" fill-rule="" class="tp-slogan iconsvg-slogansvg" fill="#fb9302" transform="translate(6.944175720214844,44.13999938964844)"><rect width="0"></rect> <rect x="146.35165405273438" width="0.8883514404296875"></rect> <g transform="translate(0,0)"><g transform="scale(1)"><path d="M7.17-6.09L7.17-6.09L6.09-6.09Q6-7.73 3.94-7.83L3.94-7.83Q2.02-7.78 2.02-6.33L2.02-6.33Q2.02-5.39 3.05-5.25L3.05-5.25L5.48-4.69Q7.41-4.22 7.41-2.34L7.41-2.34Q7.36 0.05 4.03 0.14L4.03 0.14Q2.20 0.14 1.45-0.61L1.45-0.61Q0.52-1.31 0.56-2.77L0.56-2.77L1.69-2.77Q1.73-0.80 4.03-0.75L4.03-0.75Q6.28-0.80 6.33-2.20L6.33-2.20Q6.52-3.38 4.45-3.75L4.45-3.75L2.67-4.13Q0.84-4.64 0.84-6.19L0.84-6.19Q0.98-8.72 3.84-8.81L3.84-8.81Q7.08-8.81 7.17-6.09ZM10.03-5.06L14.53-5.06L14.53-8.58L15.70-8.58L15.70 0L14.53 0L14.53-3.98L10.03-3.98L10.03 0L8.86 0L8.86-8.58L10.03-8.58L10.03-5.06ZM17.67-8.58L18.84-8.58L18.84 0L17.67 0L17.67-8.58ZM20.11-1.92L20.11-2.77L21.19-2.77L21.19-2.16Q21.19-0.75 22.50-0.75L22.50-0.75Q23.86-0.75 23.86-2.25L23.86-2.25L23.86-8.58L25.03-8.58L25.03-2.30Q24.98 0.09 22.55 0.14L22.55 0.14Q20.25 0.09 20.11-1.92L20.11-1.92ZM27-8.58L28.17-8.58L28.17 0L27 0L27-8.58ZM35.81 0L34.97-2.48L31.50-2.48L30.61 0L29.44 0L32.67-8.58L33.98-8.58L37.08 0L35.81 0ZM33.23-7.31L31.88-3.52L34.55-3.52L33.28-7.31L33.23-7.31ZM38.95-1.03L44.25-1.03L44.25 0L37.50 0L37.50-0.94L42.75-7.59L37.88-7.59L37.88-8.58L44.25-8.58L44.25-7.59L38.95-1.03ZM46.55-5.06L51.05-5.06L51.05-8.58L52.22-8.58L52.22 0L51.05 0L51.05-3.98L46.55-3.98L46.55 0L45.38 0L45.38-8.58L46.55-8.58L46.55-5.06ZM59.67-3.19L59.67-8.58L60.84-8.58L60.84-3.05Q60.70 0.05 57.33 0.14L57.33 0.14Q54.19 0.05 54.05-2.86L54.05-2.86L54.05-8.58L55.22-8.58L55.22-3.19Q55.27-0.84 57.38-0.80L57.38-0.80Q59.67-0.84 59.67-3.19L59.67-3.19ZM68.30 0L67.45-2.48L63.98-2.48L63.09 0L61.92 0L65.16-8.58L66.47-8.58L69.56 0L68.30 0ZM65.72-7.31L64.36-3.52L67.03-3.52L65.77-7.31L65.72-7.31ZM72-8.58L76.31-1.64L76.31-8.58L77.44-8.58L77.44 0L76.13 0L71.77-6.94L71.72-6.94L71.72 0L70.59 0L70.59-8.58L72-8.58ZM85.64-3.61L83.02-3.61L83.02-4.59L86.77-4.59L86.77 0L86.02 0L85.73-1.08Q84.75 0.09 82.92 0.14L82.92 0.14Q81.19 0.14 80.25-0.75L80.25-0.75Q78.84-2.06 78.89-4.36L78.89-4.36Q79.22-8.63 82.97-8.81L82.97-8.81Q86.16-8.63 86.63-6L86.63-6L85.50-6Q85.03-7.78 82.92-7.83L82.92-7.83Q80.25-7.64 80.11-4.31L80.11-4.31Q80.11-0.75 82.97-0.75L82.97-0.75Q84-0.75 84.75-1.31L84.75-1.31Q85.69-2.06 85.64-3.61L85.64-3.61ZM94.41-4.31L93.05-3.05L93.05 0L91.88 0L91.88-8.58L93.05-8.58L93.05-4.41L97.22-8.58L98.86-8.58L95.25-5.11L98.95 0L97.41 0L94.41-4.31ZM105.52 0L104.67-2.48L101.20-2.48L100.31 0L99.14 0L102.38-8.58L103.69-8.58L106.78 0L105.52 0ZM102.94-7.31L101.58-3.52L104.25-3.52L102.98-7.31L102.94-7.31ZM108-8.58L109.17-8.58L109.17 0L108 0L108-8.58ZM112.55-8.58L116.86-1.64L116.86-8.58L117.98-8.58L117.98 0L116.67 0L112.31-6.94L112.27-6.94L112.27 0L111.14 0L111.14-8.58L112.55-8.58ZM121.08-1.03L126.23-1.03L126.23 0L119.91 0L119.91-8.58L126.14-8.58L126.14-7.59L121.08-7.59L121.08-4.92L125.77-4.92L125.77-3.89L121.08-3.89L121.08-1.03ZM129.14-8.58L133.45-1.64L133.45-8.58L134.58-8.58L134.58 0L133.27 0L128.91-6.94L128.86-6.94L128.86 0L127.73 0L127.73-8.58L129.14-8.58ZM142.78-3.61L140.16-3.61L140.16-4.59L143.91-4.59L143.91 0L143.16 0L142.88-1.08Q141.89 0.09 140.06 0.14L140.06 0.14Q138.33 0.14 137.39-0.75L137.39-0.75Q135.98-2.06 136.03-4.36L136.03-4.36Q136.36-8.63 140.11-8.81L140.11-8.81Q143.30-8.63 143.77-6L143.77-6L142.64-6Q142.17-7.78 140.06-7.83L140.06-7.83Q137.39-7.64 137.25-4.31L137.25-4.31Q137.25-0.75 140.11-0.75L140.11-0.75Q141.14-0.75 141.89-1.31L141.89-1.31Q142.83-2.06 142.78-3.61L142.78-3.61Z" transform="translate(-0.5602678571428572, 8.8125)"></path></g></g></g></g></g><defs v-gra="od"></defs></svg>